<svg id="Layer_1" enable-background="new 0 0 66 66" viewBox="0 0 66 66" xmlns="http://www.w3.org/2000/svg"><g><g><path d="m62.27 63.62h-6.8c-5.69-6.5-11.07-13.85-15.58-21.48-.32 0-.94 0-1.26 0h-7.6l-.94-4.7-.63-3.16c4.1-.29 8.27.26 12.37-.03 5 7.75 9.84 14.2 14.84 21.94h5.5c-.01-.01.14 7.43.1 7.43z" fill="#95cbfc"/></g><g><path d="m11.67 40.44v20.73c0 1.18-.85 2.19-2.01 2.4-1.5.27-2.87-.88-2.87-2.4v-20.73z" fill="#ffc94d"/></g><g><path d="m30.07 40.44v20.73c0 1.18-.85 2.19-2.01 2.4-1.5.27-2.87-.88-2.87-2.4v-20.73z" fill="#ffc94d"/></g><g><path d="m9.23 64.34c-.73 0-1.45-.26-2.02-.73-.72-.6-1.13-1.49-1.13-2.43v-20.74c0-.4.32-.72.72-.72h4.88c.4 0 .72.32.72.72v20.73c0 1.53-1.09 2.84-2.6 3.11-.2.04-.38.06-.57.06zm-1.72-23.18v20.01c0 .51.23 1 .62 1.33s.91.46 1.41.37c.82-.15 1.42-.86 1.42-1.7v-20.01z" fill="#1e1d26"/></g><g><path d="m27.63 64.34c-.73 0-1.45-.26-2.02-.73-.72-.6-1.13-1.49-1.13-2.43v-20.74c0-.4.32-.72.72-.72h4.88c.4 0 .72.32.72.72v20.73c0 1.53-1.09 2.84-2.6 3.11-.2.04-.38.06-.57.06zm-1.72-23.18v20.01c0 .51.23 1 .62 1.33s.91.46 1.41.37c.82-.15 1.42-.86 1.42-1.7v-20.01z" fill="#1e1d26"/></g><g><path d="m62.27 64.34h-6.8c-.21 0-.4-.09-.54-.24-5.74-6.55-11.07-13.88-15.44-21.24h-.86-7.6c-.4 0-.72-.32-.72-.72s.32-.72.72-.72h8.87c.25 0 .49.13.62.35 4.31 7.3 9.59 14.6 15.28 21.13h5.76c-.01-1.23-.06-3.92-.1-6h-4.8c-.24 0-.47-.12-.6-.33-2.5-3.86-4.99-7.47-7.41-10.95-2.35-3.39-4.77-6.89-7.2-10.64-1.95.11-3.92.05-5.83-.01-2.01-.06-4.1-.13-6.11.01-.4.03-.74-.27-.77-.66-.03-.4.27-.74.66-.77 2.09-.15 4.21-.08 6.26-.02 2.01.06 4.1.13 6.11-.01.26-.02.51.11.65.33 2.5 3.86 4.99 7.47 7.4 10.95 2.35 3.4 4.78 6.91 7.22 10.66h5.11c.39 0 .71.31.72.7.15 7.69.15 7.69-.1 7.95-.12.15-.31.23-.5.23z" fill="#1e1d26"/></g><g><path d="m16.34 48.24c-1.57 0-3.13-.05-4.69-.16-.4-.03-.69-.37-.67-.77.03-.39.37-.7.77-.67 4.36.31 8.78.17 13.12-.39.39-.05.75.23.8.62s-.23.75-.62.8c-2.89.39-5.8.57-8.71.57z" fill="#1e1d26"/></g><g><path d="m16.34 53.62c-1.57 0-3.13-.05-4.69-.16-.4-.03-.69-.37-.67-.77.03-.4.37-.7.77-.67 4.37.31 8.78.17 13.12-.39.39-.06.75.23.8.62s-.23.75-.62.8c-2.89.38-5.8.57-8.71.57z" fill="#1e1d26"/></g><g><path d="m16.34 59c-1.57 0-3.13-.06-4.69-.16-.4-.03-.69-.37-.67-.77.03-.4.36-.7.77-.67 4.36.31 8.78.17 13.12-.39.39-.06.75.23.8.62s-.23.75-.62.81c-2.89.37-5.8.56-8.71.56z" fill="#1e1d26"/></g><g opacity=".1"><path d="m62.27 63.62h-6.8c-5.69-6.5-11.07-13.85-15.58-21.48-.32 0-.94 0-1.26 0h-7.6l-.94-4.7c1.41-.21 2.82-.33 4.23-.27 2.86.11 5.79.99 7.85 2.98 1.82 1.76 2.78 4.2 3.88 6.49 1.87 3.93 4.26 7.61 7.08 10.92 1.14 1.33 2.62 2.72 4.37 2.54 1.77-.19 2.98-1.99 3.29-3.75.01-.05.01-.1.02-.14h1.37c-.02-.03.13 7.41.09 7.41z" fill="#1e1d26"/></g><g fill="#1e1d26"><path d="m32.72 38.58c-.21-1.14-1.2-1.97-2.36-1.97h-24.23c-1.49 0-2.62 1.35-2.36 2.82.21 1.14 1.2 1.97 2.36 1.97h24.24c1.49 0 2.62-1.35 2.35-2.82z"/><path d="m30.37 42.12h-24.24c-1.51 0-2.8-1.08-3.06-2.56-.16-.91.08-1.84.68-2.55.59-.71 1.46-1.12 2.39-1.12h24.24c1.51 0 2.8 1.08 3.06 2.56.16.91-.08 1.84-.68 2.55s-1.47 1.12-2.39 1.12zm-24.24-4.8c-.5 0-.97.22-1.29.6s-.45.88-.36 1.37c.14.8.84 1.38 1.65 1.38h24.24c.5 0 .97-.22 1.29-.6s.45-.88.36-1.37c-.14-.8-.84-1.38-1.65-1.38z"/></g><g><path d="m29.17 35.65h-21.21c-.04-1.35-.09-2.56-.13-3.69-.17-4.22-.33-7.34-.49-12.37h21.21c.2 6.37.41 9.68.62 16.06z" fill="#fff"/></g><g><path d="m13.69 35.47c-.42-2.36-.85-4.82-.26-7.15s2.49-4.51 4.89-4.61c1.66-.07 3.26.88 4.24 2.22s1.4 3.03 1.46 4.69-.19 3.32-.45 4.96" fill="#3d68f8"/></g><g fill="#1e1d26"><path d="m6.42 20.54c-1.41 0-2.17-1.66-1.23-2.72l9.1-10.32 3.18-3.6c.67-.76 1.85-.74 2.49.04 3.78 4.61 7.61 9.27 11.4 13.89.88 1.07.12 2.67-1.27 2.68z"/><path d="m6.42 21.26c-.94 0-1.76-.53-2.15-1.39s-.24-1.83.38-2.53l12.28-13.92c.46-.52 1.12-.8 1.81-.8.69.01 1.34.33 1.78.86l11.4 13.89c.58.71.7 1.67.31 2.5s-1.21 1.35-2.13 1.35zm12.28-17.2c-.26 0-.52.11-.69.31l-12.28 13.92c-.25.28-.3.65-.15.99s.47.54.84.54l23.67-.04c.37 0 .68-.2.83-.53.16-.33.11-.69-.12-.98l-11.39-13.88c-.17-.21-.42-.33-.69-.34-.01.01-.02.01-.02.01z"/></g><g><path d="m29.17 36.37h-21.21c-.39 0-.7-.31-.72-.69-.1-3.19-.21-5.65-.31-8.03s-.21-4.85-.31-8.04c-.01-.19.07-.38.2-.52.14-.14.32-.22.52-.22h21.21c.39 0 .7.31.72.69.1 3.18.21 5.65.31 8.02.1 2.38.21 4.85.31 8.04.01.19-.07.38-.2.52-.14.15-.33.23-.52.23zm-20.52-1.44h19.77c-.1-2.83-.19-5.09-.29-7.29-.1-2.21-.19-4.48-.29-7.35h-19.77c.1 2.83.19 5.09.29 7.28.1 2.22.19 4.5.29 7.36z" fill="#1e1d26"/></g><g><path d="m23.59 36.3c-.04 0-.07 0-.11-.01-.39-.06-.66-.43-.6-.82.25-1.58.51-3.22.44-4.82-.07-1.72-.53-3.2-1.33-4.3-.91-1.25-2.31-1.99-3.63-1.92-2.12.09-3.73 2.12-4.23 4.07-.56 2.22-.12 4.67.27 6.84.07.39-.19.76-.58.83s-.76-.19-.83-.58c-.42-2.31-.89-4.93-.25-7.45.61-2.39 2.61-5.02 5.56-5.15 1.81-.07 3.67.89 4.85 2.51.97 1.32 1.52 3.08 1.6 5.09.07 1.74-.2 3.45-.46 5.1-.05.36-.36.61-.7.61z" fill="#1e1d26"/></g><g opacity=".1"><path d="m29.17 35.65h-21.21c-.04-1.35-.09-2.56-.13-3.69 1.23-.16 2.43-.6 3.44-1.35 1.29-.96 2.36-2.38 3.94-2.67 1.11-.21 2.23.2 3.36.33 3.3.36 6.48-1.84 8.15-4.7.72-1.23 1.22-2.58 1.55-3.97h.28c.2 6.36.41 9.67.62 16.05z" fill="#1e1d26"/></g><g><path d="m30.09 19.54-23.67.05c-1.41 0-2.17-1.66-1.23-2.73l.66-.76 8.43-9.56 3.18-3.61c.67-.76 1.85-.74 2.49.04 1.64 1.99 3.28 3.99 4.93 6 2.16 2.63 4.32 5.26 6.47 7.88.89 1.09.13 2.69-1.26 2.69z" fill="#ffc94d"/></g><g><path d="m6.42 20.3c-.94 0-1.76-.53-2.15-1.39s-.24-1.83.38-2.53l12.28-13.92c.46-.52 1.12-.81 1.81-.8s1.34.33 1.78.86l11.4 13.89c.58.71.7 1.67.31 2.5s-1.21 1.35-2.13 1.35zm12.28-17.2c-.26 0-.52.11-.69.31l-12.28 13.93c-.25.28-.3.65-.15.99s.47.54.84.54l23.67-.04c.37 0 .68-.2.83-.53.16-.33.11-.69-.12-.98l-11.39-13.89c-.17-.21-.42-.33-.69-.34-.01.01-.02.01-.02.01z" fill="#1e1d26"/></g><g><g><path d="m52.29 9.73c.77 1.65 2.76 2.61 4.55 2.27s3.27-1.88 3.63-3.67c.34-1.72-.37-3.65-1.86-4.58-3.56-2.2-7.98 2.42-6.32 5.98z" fill="#ffc94d"/></g><g><path d="m56.11 12.79c-1.86 0-3.69-1.08-4.47-2.75-.93-1.99-.28-4.53 1.57-6.18 1.75-1.56 3.96-1.83 5.77-.71 1.7 1.05 2.6 3.24 2.18 5.33-.42 2.11-2.15 3.85-4.2 4.23-.27.05-.56.08-.85.08zm-3.17-3.36c.62 1.33 2.28 2.15 3.77 1.87 1.47-.28 2.75-1.58 3.06-3.11.3-1.48-.35-3.09-1.53-3.82-1.49-.92-3.08-.31-4.07.56-1.13 1.01-2 2.85-1.23 4.5z" fill="#1e1d26"/></g></g><g opacity=".1"><path d="m30.09 19.54-23.67.05c-1.41 0-2.17-1.66-1.23-2.73l.66-.76c.11.03.23.06.34.09 1.97.48 4.1.5 5.94-.33 1.17-.53 2.25-1.4 3.53-1.48 1.12-.07 2.19.49 3.29.75 1.1.27 2.5.1 2.99-.92.38-.78.05-1.7-.14-2.55s-.13-1.93.65-2.32c.72-.35 1.69.12 2.36-.32.02-.01.04-.03.06-.04 2.16 2.63 4.32 5.26 6.47 7.88.9 1.08.14 2.68-1.25 2.68z" fill="#1e1d26"/></g><g><path d="m32.72 37.62c-.21-1.14-1.2-1.97-2.36-1.97h-24.23c-1.49 0-2.62 1.35-2.36 2.82.21 1.14 1.2 1.97 2.36 1.97h24.24c1.49 0 2.62-1.35 2.35-2.82z" fill="#64c682"/></g><g><path d="m30.37 41.16h-24.24c-1.51 0-2.8-1.08-3.06-2.56-.16-.91.08-1.84.68-2.55s1.46-1.12 2.39-1.12h24.24c1.51 0 2.8 1.08 3.06 2.56.16.91-.08 1.84-.68 2.55s-1.47 1.12-2.39 1.12zm-24.24-4.79c-.5 0-.97.22-1.29.6s-.45.88-.36 1.37c.14.8.84 1.38 1.65 1.38h24.24c.5 0 .97-.22 1.29-.6s.45-.88.36-1.37c-.14-.8-.84-1.38-1.65-1.38z" fill="#1e1d26"/></g><g><path d="m43.16 7.2c-.35 0-.65-.25-.71-.59-.05-.27-.32-.5-.59-.5-.26 0-.55.23-.6.49-.07.39-.45.64-.84.57-.39-.08-.64-.45-.57-.84.18-.93 1.06-1.66 2.01-1.66h.02c.45 0 .88.17 1.22.44.44-.5 1.04-.85 1.57-1 1.01-.27 2.14.09 2.82.88.26.3.22.75-.08 1.01s-.75.22-1.01-.08c-.32-.38-.88-.55-1.36-.42-.53.14-1.09.67-1.17 1.12-.07.33-.36.58-.71.58z" fill="#1e1d26"/></g><g><path d="m39.35 14.22c-.34 0-.64-.24-.7-.58-.09-.44-.64-.98-1.17-1.12-.48-.13-1.04.05-1.36.42-.26.3-.71.34-1.01.08s-.34-.71-.08-1.01c.68-.79 1.81-1.15 2.82-.88.53.14 1.13.5 1.57 1 .35-.27.78-.44 1.22-.44.95-.02 1.84.72 2.02 1.66.08.39-.18.77-.57.84-.39.08-.77-.18-.84-.57-.05-.26-.33-.49-.6-.49-.27 0-.55.24-.59.5-.07.34-.36.59-.71.59z" fill="#1e1d26"/></g></g></svg>