<svg height="512" viewBox="0 0 42 60" width="512" xmlns="http://www.w3.org/2000/svg"><g id="Page-1" fill="none" fill-rule="evenodd"><g id="001---Toilet" fill="rgb(0,0,0)" fill-rule="nonzero" transform="translate(0 -1)"><path id="Shape" d="m21 34c-5.78 0-12 1.408-12 4.5s6.22 4.5 12 4.5 12-1.408 12-4.5-6.22-4.5-12-4.5zm0 7c-6.6 0-10-1.752-10-2.5s3.4-2.5 10-2.5 10 1.752 10 2.5-3.4 2.5-10 2.5z"/><path id="Shape" d="m5 33h1.753c-2.961 1.582-4.753 3.671-4.753 6 0 5.578 3.412 10.492 8.566 13.357l-.323 4.348c-.081992 1.108726.3011495 2.2015592 1.0575198 3.0163599.7563702.8148006 1.8177268 1.2780545 2.9294802 1.2786401h13.54c1.1115662-.000606 2.1727529-.4637241 2.9290904-1.2782997.7563375-.8145757 1.1396099-1.9071405 1.0579096-3.0157003l-.323-4.349c5.154-2.865 8.566-7.779 8.566-13.357 0-2.329-1.792-4.418-4.753-6h1.753c2.7600532-.0033061 4.9966939-2.2399468 5-5v-19c-.0033061-2.76005315-2.2399468-4.99669388-5-5h-6.508c-2.7566192-1.99957628-6.0869249-3.05213816-9.492-3-3.4050751-.05213816-6.7353808 1.00042372-9.492 3h-6.508c-2.76005315.00330612-4.99669388 2.23994685-5 5v19c.00330612 2.7600532 2.23994685 4.9966939 5 5zm24.763 23.854c.0405524.554027-.1511482 1.0999612-.5291741 1.5070077-.378026.4070464-.9083169.6385302-1.4638259.6389923h-13.54c-.555509-.0004621-1.0857999-.2319459-1.4638259-.6389923-.3780259-.4070465-.5697265-.9529807-.5291741-1.5070077l.263-3.564c5.4371051 2.2810951 11.5628949 2.2810951 17 0zm-8.763-3.854c-7.221 0-13.389-3.734-15.849-8.975 3.374 2.413 9.154 3.975 15.849 3.975s12.475-1.562 15.849-3.975c-2.46 5.241-8.628 8.975-15.849 8.975zm17-14c0 3.38-6.831 7-17 7s-17-3.62-17-7 6.831-7 17-7c5.205 0 17 1.877 17 7zm2-30v19c0 1.6568542-1.3431458 3-3 3h-2.127c.248-.541.482-1.091.686-1.655.9665147-2.6616458 1.4543706-5.4733344 1.441-8.305 0-7.377-1.862-12.069-4.393-15.04h4.393c1.6568542 0 3 1.34314575 3 3zm-5 12.04c.0133868 2.5980162-.4335165 5.1778669-1.32 7.62-.3908627 1.0562583-.8730196 2.07645-1.441 3.049-3.6287524-1.1758636-7.4247431-1.7530811-11.239-1.709-3.8128934-.0444144-7.6075684.5324707-11.235 1.708-.57214387-.9726214-1.05639582-1.9943361-1.447-3.053-.88536352-2.440641-1.33158458-5.0187695-1.318-7.615 0-11.465 5.1-18.04 14-18.04s14 6.575 14 18.04zm-33-12.04c0-1.65685425 1.34314575-3 3-3h4.393c-2.531 2.971-4.393 7.663-4.393 15.04-.01358969 2.8298817.47358466 5.6398518 1.439 8.3.207.571.454 1.117.7 1.66h-2.139c-1.65685425 0-3-1.3431458-3-3z"/><path id="Shape" d="m10 22.04c.5522847 0 1-.4477153 1-1 0-9.316 3.364-14.04 10-14.04.5522847 0 1-.44771525 1-1s-.4477153-1-1-1c-7.738 0-12 5.7-12 16.04 0 .5522847.44771525 1 1 1z"/></g></g></svg>